HIERARCHY
ROOT Hips
{
	OFFSET 0.00000 0.00000 0.00000
	CHANNELS 6 Xposition Yposition Zposition Yrotation Zrotation Xrotation 
	JOINT Lumbar
	{
		OFFSET 0 0 0
		CHANNELS 3 Zrotation Xrotation Yrotation
		JOINT Neck
		{
			OFFSET 0.00 0.2701 0.00
			CHANNELS 3 Zrotation Xrotation Yrotation
			End Site
			{
				OFFSET 0.00 0.1379 0.00
			}
		}
		JOINT RightShoulder
		{
			OFFSET 0.0119 0.2289 0.1181
			CHANNELS 3 Zrotation Xrotation Yrotation
			JOINT RightElbow
			{
				OFFSET 0.00 -0.1475 0.00
				CHANNELS 2 Zrotation Yrotation
				JOINT RightWrist
				{
					OFFSET 0.00 -0.1605 0.00
					CHANNELS 2 Zrotation Xrotation
					End Site
					{
						OFFSET 0.0040 -0.1068 0.0006
					}
				}
			}
		}
		JOINT LeftShoulder
		{
			OFFSET 0.0119 0.2289 -0.1181
			CHANNELS 3 Zrotation Xrotation Yrotation
			JOINT LeftElbow
			{
				OFFSET 0.00 -0.1475 0.00
				CHANNELS 2 Zrotation Yrotation
				JOINT LeftWrist
				{
					OFFSET 0.00 -0.1605 0.00
					CHANNELS 2 Zrotation Xrotation
					End Site
					{
						OFFSET 0.0040 -0.1068 -0.0006
					}
				}
			}
		}
	}
	JOINT RightHip
	{
		OFFSET 0.0316 -0.0424 0.0458
		CHANNELS 3 Zrotation Xrotation Yrotation
		JOINT RightKnee
		{
			OFFSET 0.00 -0.2438 0.00
			CHANNELS 1 Zrotation
			JOINT RightAnkle
			{
				OFFSET 0.00 -0.2449 0.00
				CHANNELS 3 Zrotation Xrotation Yrotation
				End Site
				{
					OFFSET 0.1237 -0.0542 0.0051
				}
			}
		}
	}
	JOINT LeftHip
	{
		OFFSET 0.0316 -0.0424 -0.0458
		CHANNELS 3 Zrotation Xrotation Yrotation
		JOINT LeftKnee
		{
			OFFSET 0.00 -0.2438 0.00
			CHANNELS 1 Zrotation
			JOINT LeftAnkle
			{
				OFFSET 0.00 -0.2449 0.00
				CHANNELS 3 Zrotation Xrotation Yrotation
				End Site
				{
					OFFSET 0.1237 -0.0542 -0.0051
				}
			}
		}
	}
}
MOTION
Frames: 33
Frame Time: 0.02
0.0432 0.01639 -0.2276 -59.57844 -25.1189 11.81234 33.74964 1.39874 -2.41208 -5.76469 -6.79089 -2.11993 -35.1805 -9.98377 -24.24543 48.27135 86.79108 2.8751 0.78102 -6.13754 11.86626 2.20454 122.04302 -83.97542 4.77905 1.72512 35.17733 -5.62861 -5.71052 -21.12999 -7.06683 -1.06915 -2.78928 48.40237 3.50261 3.99858 -37.82642 -7.97281 2.46438 3.42195
0.04584 0.01702 -0.22614 -61.42491 -25.56191 12.05354 33.58313 1.55287 -2.79784 -5.69201 -6.92547 -2.11993 -33.08619 -10.48637 -23.50977 48.40456 86.74726 2.83634 0.75581 -6.1989 11.67225 1.85565 122.18047 -83.79547 4.96503 1.43859 35.42609 -5.86378 -4.97504 -21.20479 -7.11007 -0.95586 -2.73689 47.86568 3.18464 4.83485 -35.49463 -7.90875 2.31266 3.35704
0.04888 0.0173 -0.2243 -63.3304 -25.92011 12.15927 33.53504 1.70264 -3.46326 -5.77165 -6.85659 -2.11993 -30.53292 -10.93766 -22.76461 48.0647 86.70188 2.75245 0.73498 -6.42824 11.29728 1.72624 122.34882 -83.94035 5.27348 0.93704 35.63048 -6.07429 -4.42186 -21.48792 -7.13822 -0.83472 -2.67994 47.04604 3.05249 5.50884 -33.6645 -7.89633 2.17069 3.30774
0.05174 0.01771 -0.22267 -65.17064 -26.30936 12.33617 33.43757 1.83855 -4.01851 -5.78244 -6.87301 -2.11993 -28.22362 -11.38195 -22.04097 47.96084 86.64237 2.67736 0.71073 -6.55012 11.02513 1.4841 122.5008 -83.9251 5.50568 0.56329 35.88482 -6.30174 -3.76215 -21.73686 -7.17122 -0.72279 -2.62769 46.36481 2.82655 6.26295 -31.63778 -7.85799 2.02794 3.25239
0.0546 0.01823 -0.2209 -67.17699 -26.73419 12.47714 33.32713 2.03992 -4.50998 -5.79416 -6.92718 -2.11993 -25.75527 -11.95157 -21.23925 47.79584 86.63886 2.64718 0.69176 -6.81559 10.66497 1.30562 122.66455 -83.96464 5.82365 0.0644 36.01936 -6.50461 -3.16767 -21.7346 -7.21331 -0.58928 -2.56545 45.62999 2.63944 7.0042 -29.44174 -7.83171 1.86937 3.19245
0.05755 0.01846 -0.21931 -68.84931 -27.06135 12.65607 33.26798 2.10528 -5.19485 -5.83973 -6.84802 -2.11993 -23.51819 -12.24859 -20.60239 47.63052 86.52181 2.51524 0.66291 -6.81595 10.44355 1.04175 122.81448 -83.96206 5.99411 -0.22523 36.38621 -6.7512 -2.50031 -22.29892 -7.23281 -0.49809 -2.52256 44.94196 2.41863 7.72556 -27.73109 -7.79224 1.7461 3.1458
0.06078 0.01793 -0.21833 -69.59105 -27.16361 13.00912 33.34243 1.78612 -6.38119 -5.9346 -6.49286 -2.11993 -21.96678 -11.8106 -20.39579 47.63661 86.0803 2.10297 0.60921 -6.05849 10.67421 0.50701 122.8677 -83.80425 5.71424 0.11259 37.45951 -7.14666 -1.50852 -24.43092 -7.19166 -0.52456 -2.53358 44.48178 2.02469 8.46494 -27.24582 -7.69974 1.71948 3.13255
0.06407 0.01713 -0.21753 -69.99252 -27.16631 13.39808 33.46048 1.33232 -7.74481 -6.05914 -6.00172 -2.11993 -20.67646 -11.09991 -20.36227 47.64381 85.52748 1.59168 0.5454 -5.02433 11.04622 -0.12578 122.91417 -83.57639 5.28873 0.66977 38.75783 -7.58346 -0.45531 -27.11447 -7.1285 -0.59383 -2.56419 44.07585 1.59665 9.18179 -27.23582 -7.59266 1.72787 3.13208
0.06728 0.01648 -0.21663 -70.54582 -27.1979 13.74674 33.54361 0.94664 -9.00367 -6.17419 -5.54503 -2.11993 -19.31014 -10.51067 -20.26605 47.61178 85.03385 1.13382 0.48348 -4.10486 11.33834 -0.72682 122.99666 -83.36625 4.93241 1.12672 39.91757 -7.98681 0.51386 -29.51205 -7.07663 -0.64385 -2.58602 43.62691 1.20637 9.88609 -27.0082 -7.49453 1.71921 3.1254
0.07072 0.01571 -0.21578 -71.11496 -27.29341 14.19206 33.69255 0.53096 -10.3762 -6.27778 -5.1984 -2.11993 -17.74843 -9.92853 -20.0965 47.73205 84.50378 0.64127 0.43117 -3.23691 11.69185 -1.26575 122.94265 -83.26519 4.54842 1.57388 41.22932 -8.44996 1.7126 -32.07209 -7.01896 -0.69255 -2.6071 43.24208 0.72806 10.68264 -26.80341 -7.38832 1.71551 3.12086
0.07369 0.01512 -0.21488 -71.56718 -27.23599 14.44616 33.71594 0.14657 -11.54829 -6.41028 -4.59086 -2.11993 -16.66073 -9.26943 -20.12794 47.53531 84.02319 0.19486 0.35881 -2.19527 11.95135 -1.96053 123.16914 -82.86816 4.21003 2.10212 42.27817 -8.80019 2.45197 -34.41435 -6.96814 -0.75458 -2.63459 42.74438 0.42329 11.28189 -26.65861 -7.29494 1.70987 3.11483
0.07547 0.0151 -0.21381 -71.79836 -26.75713 14.16576 33.35782 -0.12461 -12.14049 -6.61437 -3.31521 -2.11993 -16.82955 -8.44877 -20.61151 46.51809 83.70683 -0.07218 0.21173 -0.72884 11.93642 -3.05819 124.18556 -82.0932 3.82249 2.75034 42.54754 -8.81651 1.89171 -36.08316 -6.94373 -0.84015 -2.67374 41.88935 0.59901 11.35789 -26.55365 -7.23887 1.6886 3.10048
0.07677 0.01526 -0.21267 -71.91928 -26.13254 13.69212 32.87589 -0.35844 -12.52049 -6.84584 -1.78005 -2.11993 -17.46688 -7.5635 -21.3022 45.17501 83.44407 -0.29429 0.04806 0.89996 11.81988 -4.30937 125.48085 -80.95221 3.52216 3.48182 42.54374 -8.72051 0.87175 -37.49975 -6.92679 -0.93815 -2.7189 40.92658 0.95088 11.23387 -26.49224 -7.19624 1.66441 3.08431
0.07822 0.01535 -0.21155 -72.07893 -25.59057 13.30584 32.46569 -0.60542 -12.98488 -7.06475 -0.35109 -2.11993 -17.88413 -6.71815 -21.93848 43.94572 83.15655 -0.55496 -0.09267 2.44854 11.73706 -5.49591 126.64041 -79.68769 3.32257 4.2108 42.66516 -8.68343 0.07253 -38.99115 -6.905 -1.03244 -2.76217 40.03557 1.22588 11.19172 -26.41445 -7.14827 1.64267 3.06964
0.07993 0.0154 -0.2105 -72.27708 -24.97612 12.92182 31.99119 -0.87349 -13.50569 -7.28567 1.0369 -2.11993 -18.33919 -5.81778 -22.41532 42.85603 82.86685 -0.74265 -0.29541 4.03928 11.70906 -6.67125 127.84143 -79.6041 2.53538 4.80321 42.79297 -8.61297 -0.77822 -40.67514 -6.88808 -1.12033 -2.80265 39.04914 1.48662 11.18693 -26.33825 -7.09659 1.61754 3.05265
0.08099 0.01556 -0.20929 -72.37039 -24.47904 12.48782 31.62138 -1.08669 -13.85725 -7.50804 2.56542 -2.11993 -18.82498 -5.02135 -23.26841 41.40448 82.59587 -1.07024 -0.37703 5.5703 11.54417 -7.89614 129.01777 -77.02573 2.98205 5.69064 42.83578 -8.58676 -1.62702 -41.88444 -6.86372 -1.22358 -2.85 38.23629 1.81902 11.057 -26.26393 -7.05602 1.59817 3.03979
0.08042 0.01596 -0.2077 -72.22736 -24.34545 11.95398 31.56479 -1.15966 -13.78269 -7.73143 4.45669 -2.11993 -19.26746 -4.51929 -25.13165 38.98268 82.36307 -1.79452 -0.08331 6.95418 10.99848 -9.29493 130.09769 -67.20922 6.91971 7.42582 42.74331 -8.69346 -2.39779 -41.89711 -6.81169 -1.36863 -2.91571 37.92087 2.30898 10.63206 -26.17196 -7.04264 1.59664 3.03959
0.07919 0.01645 -0.20595 -71.97952 -24.33514 11.37816 31.61917 -1.17772 -13.54592 -7.95468 6.47203 -2.11993 -19.72604 -4.12673 -27.36047 36.2192 82.14731 -2.65987 0.32648 8.25998 10.32345 -10.72235 131.13584 -54.97731 12.07389 9.44346 42.56791 -8.85148 -3.14396 -41.42883 -6.75306 -1.52775 -2.98775 37.78558 2.86483 10.08815 -26.0803 -7.0401 1.60058 3.04339
0.07825 0.01688 -0.20425 -71.76406 -24.2661 10.82718 31.62599 -1.21871 -13.38983 -8.17513 8.4055 -2.11993 -20.18479 -3.69131 -29.4079 33.64334 81.92529 -3.46166 0.65844 9.56275 9.72448 -12.0892 132.16676 -44.13867 16.60701 11.29631 42.40747 -8.9968 -3.87512 -41.14266 -6.70104 -1.67893 -3.05638 37.57248 3.38854 9.59748 -25.99394 -7.03274 1.6011 3.0448
0.07737 0.01738 -0.20262 -71.60855 -24.20211 10.24466 31.61463 -1.26661 -13.19813 -8.40778 10.45799 -2.11993 -20.62814 -3.22548 -31.53096 30.91259 81.70117 -4.26326 1.09387 11.035 9.04722 -13.66857 133.31752 -32.03749 21.44452 13.30815 42.33195 -9.09343 -4.73136 -40.99919 -6.63395 -1.83818 -3.12796 37.33685 3.92671 9.10232 -25.88607 -7.02527 1.60565 3.0486
0.07619 0.01777 -0.20081 -71.30523 -24.1603 9.72101 31.67132 -1.28809 -13.04347 -8.61568 12.28577 -2.11993 -21.10164 -2.84842 -33.57567 28.43629 81.48184 -5.09473 1.34387 12.13225 8.50596 -14.80215 134.20583 -21.99951 25.9189 15.05212 42.06544 -9.30504 -5.3171 -40.45101 -6.59665 -1.98246 -3.19419 37.19444 4.4493 8.59208 -25.8229 -7.02055 1.60294 3.04832
0.07443 0.01788 -0.19854 -70.61684 -24.13679 9.36624 31.86958 -1.24521 -13.04252 -8.74574 13.48464 -2.11993 -21.64766 -2.70379 -35.35287 26.6735 81.29833 -6.01394 1.03362 12.22181 8.35196 -14.76292 134.3716 -18.23285 29.24019 16.00949 41.27533 -9.82191 -5.14218 -38.8742 -6.64263 -2.09344 -3.24954 37.24711 4.90173 8.05935 -25.87844 -7.01974 1.58072 3.03647
0.07237 0.01788 -0.19608 -69.78491 -24.13406 9.07417 32.1362 -1.17873 -13.08289 -8.85234 14.44685 -2.11993 -22.22179 -2.64292 -37.02858 25.19401 81.11494 -6.9514 0.53647 11.93362 8.34339 -14.26018 134.27467 -16.63079 32.12808 16.6831 40.30043 -10.4525 -4.69624 -36.91428 -6.71889 -2.18677 -3.29828 37.39079 5.33727 7.518 -25.97952 -7.0214 1.55079 3.0203
0.0704 0.01792 -0.19369 -69.0203 -24.13144 8.75664 32.38537 -1.12638 -13.09825 -8.97598 15.5027 -2.11993 -22.7858 -2.53424 -38.72692 23.63383 80.91221 -7.85427 0.13803 11.81256 8.28193 -13.92728 134.302 -14.05082 35.11488 17.47147 39.42212 -11.0323 -4.3863 -35.1486 -6.78167 -2.28045 -3.34638 37.50605 5.78702 6.98872 -26.06262 -7.02258 1.52306 3.0056
0.06862 0.01803 -0.1914 -68.24098 -24.09436 8.4236 32.58287 -1.05766 -13.13585 -9.07343 16.62508 -2.11993 -23.34171 -2.46858 -40.54485 21.85766 80.78679 -8.87192 -0.31428 11.71044 8.16059 -13.77155 134.30791 -11.36239 38.55005 18.32913 38.48697 -11.61303 -4.02581 -33.27692 -6.84306 -2.40657 -3.4099 37.57518 6.21206 6.42252 -26.13452 -7.02158 1.5006 2.99292
0.06636 0.01796 -0.18884 -67.46229 -24.13029 8.13972 32.90025 -1.01824 -13.13689 -9.21896 17.54689 -2.11993 -23.91808 -2.33417 -42.07539 20.60436 80.5061 -9.65442 -0.70058 11.47719 8.19965 -13.13156 134.29602 -9.44471 40.94267 18.9721 37.62812 -12.21447 -3.70126 -31.54643 -6.91458 -2.46131 -3.43989 37.75681 6.68311 5.93049 -26.24029 -7.02539 1.46581 2.9752
0.06293 0.01747 -0.18559 -66.69841 -24.38056 7.96505 33.55346 -1.06458 -13.0461 -9.51055 18.00472 -2.11993 -24.56627 -1.96799 -42.91808 20.71857 79.74444 -9.77023 -0.85645 10.99967 8.65174 -11.30649 134.3033 -9.14693 40.46764 19.08327 37.02014 -12.87624 -3.58896 -30.25879 -7.00671 -2.31847 -3.37698 38.2503 7.28961 5.66566 -26.43048 -7.04335 1.39409 2.94251
0.05901 0.01679 -0.18206 -65.94507 -24.69954 7.8402 34.32025 -1.14135 -12.91399 -9.84992 18.26078 -2.11993 -25.22906 -1.53274 -43.46015 21.35267 78.83552 -9.65065 -0.94029 10.39903 9.25978 -9.00196 134.30111 -9.55919 38.96916 18.98804 36.49671 -13.54844 -3.51519 -29.1367 -7.10766 -2.10539 -3.28098 38.84833 7.94183 5.47258 -26.65271 -7.0658 1.31111 2.90528
0.05524 0.01616 -0.17865 -65.20158 -24.97496 7.69987 35.02052 -1.20552 -12.78949 -10.16242 18.58943 -2.11993 -25.8714 -1.14318 -44.08233 21.75466 78.02894 -9.64628 -1.05952 9.83828 9.79342 -6.89226 134.30079 -9.64369 37.99628 18.99169 35.93833 -14.19587 -3.39111 -27.96775 -7.20503 -1.9273 -3.2013 39.3825 8.56998 5.23403 -26.85908 -7.08505 1.23639 2.87148
0.05176 0.0157 -0.17527 -64.39009 -25.30383 7.53065 35.78669 -1.26506 -12.71492 -10.49582 18.9965 -2.11993 -26.57609 -0.69803 -44.93132 22.1472 77.07547 -9.60699 -1.17471 9.33145 10.34718 -4.86668 134.30166 -9.82025 36.75688 18.96524 35.35879 -14.93368 -3.38922 -26.66456 -7.30313 -1.73493 -3.11567 39.99 9.21156 5.04952 -27.07294 -7.10899 1.14811 2.83175
0.04756 0.01483 -0.17177 -63.72602 -25.5367 7.43365 36.44101 -1.34003 -12.52419 -10.7974 19.18794 -2.11993 -27.15021 -0.34893 -45.24838 22.68116 76.3897 -9.58538 -1.27787 8.68886 10.89391 -2.55444 134.30113 -9.95001 35.83105 18.9548 34.84582 -15.48192 -3.15406 -25.68631 -7.39955 -1.55678 -3.03507 40.46712 9.83614 4.76945 -27.27768 -7.12459 1.08555 2.80338
0.04163 0.0129 -0.16801 -63.45406 -25.49347 7.51463 36.76376 -1.46462 -12.03898 -10.99917 18.89795 -2.11993 -27.39256 -0.30217 -44.07553 23.46102 76.50832 -9.65949 -1.37298 7.6971 11.38275 0.3956 134.3013 -9.73405 36.05791 19.05134 34.49782 -15.52273 -2.19156 -25.5593 -7.50521 -1.42723 -2.97287 40.57018 10.40327 4.21008 -27.45324 -7.11284 1.09637 2.80711
0.03497 0.01055 -0.16413 -63.33227 -25.35031 7.66768 36.96861 -1.60071 -11.43548 -11.16754 18.38736 -2.11993 -27.49692 -0.35142 -42.39365 24.36678 76.89658 -9.76078 -1.45635 6.57657 11.8569 3.61939 134.30132 -9.44364 36.6322 19.17026 34.21508 -15.36799 -1.00691 -25.75656 -7.60599 -1.316 -2.91759 40.53676 10.95159 3.55207 -27.61724 -7.09339 1.13352 2.82251
